<svg width="60" height="60" viewBox="0 0 60 60" fill="none" xmlns="http://www.w3.org/2000/svg">
    <path opacity="0.3"
        d="M60 30C60 46.5685 46.5685 60 30 60C13.4315 60 0 46.5685 0 30C0 13.4315 13.4315 0 30 0C46.5685 0 60 13.4315 60 30ZM5.98015 30C5.98015 43.2658 16.7342 54.0198 30 54.0198C43.2658 54.0198 54.0198 43.2658 54.0198 30C54.0198 16.7342 43.2658 5.98015 30 5.98015C16.7342 5.98015 5.98015 16.7342 5.98015 30Z"
        fill="#25C8A8" />
    <path
        d="M57.0369 30C58.6734 30 60.0152 28.6702 59.8538 27.0417C59.5639 24.1168 58.8453 21.2449 57.7164 18.5195C56.2087 14.8797 53.999 11.5726 51.2132 8.78679C48.4274 6.00104 45.1203 3.79125 41.4805 2.28361C38.7551 1.15472 35.8832 0.436055 32.9583 0.146215C31.3298 -0.0151603 30 1.32663 30 2.96312V2.96312C30 4.59961 31.3316 5.90745 32.9557 6.10837C35.1016 6.37385 37.2066 6.92781 39.2126 7.75874C42.1334 8.96856 44.7873 10.7418 47.0227 12.9773C49.2582 15.2127 51.0314 17.8666 52.2413 20.7874C53.0722 22.7934 53.6261 24.8984 53.8916 27.0443C54.0926 28.6684 55.4004 30 57.0369 30V30Z"
        fill="#25C8A8" />
</svg>